# xmcd
#
# Track frame offsets:
#	150
#	13503
#	25693
#	42249
#	61502
#	82654
#	96322
#	116671
#	133651
#	151827
#	166521
#	190136
#	207228
#	219902
#	234966
#	252041
#	265367
#	277631
#	292255
#	310483
#
# Disc length: 4353 seconds
#
# Revision: 1
# Processed by: cddbd v1.4PL0 Copyright (c) Steve Scherf et al.
# Submitted via: audiograbber 1.80
#
DISCID=fe10ff14
DTITLE=Abflieger - 3. Folgekontingent 1999
DYEAR=1900
DGENRE=
TTITLE0=Opener Wolfgang Petry - Vorbei ist vorbei
TTITLE1=Alt wie ein Baum
TTITLE2=Britta´s Brüste
TTITLE3=Black Fooss - Am Arsch der Welt
TTITLE4=Maria
TTITLE5=Ihr seid das Ruhrgebiet
TTITLE6=Es iost vorbei
TTITLE7=Mama nimm mich von der Zeche
TTITLE8=1111111111
TTITLE9=Toten Hosen - Damenwahl
TTITLE10=111111111111
TTITLE11=Tarkan
TTITLE12=Westernhagen - Freiheit
TTITLE13=Sieben Tage lang
TTITLE14=I hab die Sheriff erschossen
TTITLE15=Queen - We are the champions
TTITLE16=Einer geht noch rein
TTITLE17=Falco - Jeanny Part 1
TTITLE18=Bocelli - Time to say goodbye
TTITLE19=Marlene Dietrich - Laterne
EXTD=
EXTT0=
EXTT1=
EXTT2=
EXTT3=
EXTT4=
EXTT5=
EXTT6=
EXTT7=
EXTT8=
EXTT9=
EXTT10=
EXTT11=
EXTT12=
EXTT13=
EXTT14=
EXTT15=
EXTT16=
EXTT17=
EXTT18=
EXTT19=
PLAYORDER=
